<svg width="640" height="512" viewBox="0 0 640 512" fill="none" xmlns="http://www.w3.org/2000/svg">
<g clip-path="url(#clip0_21_84)">
<path d="M320 0C337.7 0 352 14.3 352 32V96H480C515.3 96 544 124.7 544 160V448C544 483.3 515.3 512 480 512H160C124.7 512 96 483.3 96 448V160C96 124.7 124.7 96 160 96H288V32C288 14.3 302.3 0 320 0ZM208 384C199.2 384 192 391.2 192 400C192 408.8 199.2 416 208 416H240C248.8 416 256 408.8 256 400C256 391.2 248.8 384 240 384H208ZM304 384C295.2 384 288 391.2 288 400C288 408.8 295.2 416 304 416H336C344.8 416 352 408.8 352 400C352 391.2 344.8 384 336 384H304ZM400 384C391.2 384 384 391.2 384 400C384 408.8 391.2 416 400 416H432C440.8 416 448 408.8 448 400C448 391.2 440.8 384 432 384H400ZM264 256C264 233.9 246.1 216 224 216C201.9 216 184 233.9 184 256C184 278.1 201.9 296 224 296C246.1 296 264 278.1 264 256ZM416 296C438.1 296 456 278.1 456 256C456 233.9 438.1 216 416 216C393.9 216 376 233.9 376 256C376 278.1 393.9 296 416 296ZM48 224H64V416H48C21.5 416 0 394.5 0 368V272C0 245.5 21.5 224 48 224ZM592 224C618.5 224 640 245.5 640 272V368C640 394.5 618.5 416 592 416H576V224H592Z" fill="#FFFEFE"/>
</g>
<defs>
<clipPath id="clip0_21_84">
<rect width="640" height="512" fill="white"/>
</clipPath>
</defs>
</svg>
